# xmcd CD database file
#
# Track frame offsets:
#	150
#	20592
#	37995
#	54450
#	78767
#	104012
#	127040
#	145590
#	165695
#	184810
#	205030
#
# Disc length: 2958 seconds
#
# Revision: 0
# Processed by: cddbd v1.5PL3 Copyright (c) Steve Scherf et al.
# Submitted via: CDex 1.51
#
DISCID=8f0b8c0b
DTITLE=Various Artist - No Static at All: An Instrumental Tribute to Steely Dan
DYEAR=2000
DGENRE=Jazz
TTITLE0=Do It Again (Featuring Jeff Lorber and Warren Hill)
TTITLE1=Peg (Featuring Doc Powell)
TTITLE2=FM (No Static At All) (Featuring Jeff Lorber and Nick Kirgo)
TTITLE3=Deacon Blues (Featuring Richard Elliot and Tony Guerrero)
TTITLE4=Rikki Don't Lose That Number (Featuring Warren Hill)
TTITLE5=Josie (Featuring Chieli Minucci and Dave Koz)
TTITLE6=Bad Sneakers (Featuring Rogger Smith and Eddie M.)
TTITLE7=Caves of Altimira (Featuring Michael Sims)
TTITLE8=Hey Nineteen (Featuring Michael Lington and Tony Guerrero)
TTITLE9=Reelin' in the Years (Featuring Eddie M. and Roger Smith)
TTITLE10=Pearl of the Quarter (Featuring Steve Nieves and Jango)
EXTD=YEAR: 2000
EXTT0=
EXTT1=
EXTT2=
EXTT3=
EXTT4=
EXTT5=
EXTT6=
EXTT7=
EXTT8=
EXTT9=
EXTT10=
PLAYORDER=
